<svg width="316" height="316" viewBox="0 0 316 316" fill="none" xmlns="http://www.w3.org/2000/svg" style="margin-bottom='-5px';">
<g id="Group 208">
<g id="Polygon 4">
<path d="M139.813 31.5C147.896 17.5 168.104 17.5 176.187 31.5L276.645 205.5C284.728 219.5 274.625 237 258.459 237H57.541C41.3752 237 31.2716 219.5 39.3545 205.5L139.813 31.5Z" fill="#5E8AA7"/>
<path d="M139.813 31.5C147.896 17.5 168.104 17.5 176.187 31.5L276.645 205.5C284.728 219.5 274.625 237 258.459 237H57.541C41.3752 237 31.2716 219.5 39.3545 205.5L139.813 31.5Z" stroke="black"/>
</g>
<path id="!" d="M153.848 159.656L152.44 111.272L152.184 99.24H162.808L162.552 111.272L161.144 159.656H153.848ZM157.56 186.536C155.427 186.536 153.592 185.811 152.056 184.36C150.605 182.824 149.88 180.904 149.88 178.6C149.88 176.125 150.605 174.163 152.056 172.712C153.592 171.176 155.427 170.408 157.56 170.408C159.608 170.408 161.357 171.176 162.808 172.712C164.344 174.163 165.112 176.125 165.112 178.6C165.112 180.904 164.344 182.824 162.808 184.36C161.357 185.811 159.608 186.536 157.56 186.536Z" fill="white"/>
</g>
</svg>
