<svg width="316" height="316" viewBox="0 0 316 316" fill="none" xmlns="http://www.w3.org/2000/svg">
<g id="Group 209">
<g id="Polygon 4">
<path d="M139.813 31.5C147.896 17.5 168.104 17.5 176.187 31.5L276.645 205.5C284.728 219.5 274.625 237 258.459 237H57.541C41.3752 237 31.2716 219.5 39.3545 205.5L139.813 31.5Z" fill="#5E8AA7"/>
<path d="M139.813 31.5C147.896 17.5 168.104 17.5 176.187 31.5L276.645 205.5C284.728 219.5 274.625 237 258.459 237H57.541C41.3752 237 31.2716 219.5 39.3545 205.5L139.813 31.5Z" stroke="black"/>
</g>
<path id="?" d="M153.48 162.656C152.883 158.645 153.096 155.104 154.12 152.032C155.144 148.96 156.552 146.144 158.344 143.584C160.221 141.024 162.099 138.592 163.976 136.288C165.939 133.984 167.603 131.68 168.968 129.376C170.333 127.072 171.016 124.555 171.016 121.824C171.016 118.411 169.949 115.509 167.816 113.12C165.768 110.645 162.696 109.408 158.6 109.408C155.784 109.408 153.096 110.091 150.536 111.456C148.061 112.736 145.843 114.528 143.88 116.832L137.864 111.328C140.595 108.256 143.752 105.739 147.336 103.776C151.005 101.728 155.187 100.704 159.88 100.704C166.365 100.704 171.528 102.539 175.368 106.208C179.293 109.877 181.256 114.869 181.256 121.184C181.256 124.512 180.573 127.541 179.208 130.272C177.843 132.917 176.136 135.435 174.088 137.824C172.125 140.213 170.205 142.645 168.328 145.12C166.451 147.595 164.915 150.24 163.72 153.056C162.611 155.872 162.269 159.072 162.696 162.656H153.48ZM158.344 189.536C156.211 189.536 154.419 188.811 152.968 187.36C151.517 185.824 150.792 183.904 150.792 181.6C150.792 179.125 151.517 177.163 152.968 175.712C154.419 174.176 156.211 173.408 158.344 173.408C160.477 173.408 162.269 174.176 163.72 175.712C165.256 177.163 166.024 179.125 166.024 181.6C166.024 183.904 165.256 185.824 163.72 187.36C162.269 188.811 160.477 189.536 158.344 189.536Z" fill="white"/>
</g>
</svg>
